<?xml version="1.0" standalone="no"?>
<!DOCTYPE svg PUBLIC "-//W3C//DTD SVG 20010904//EN"
 "http://www.w3.org/TR/2001/REC-SVG-20010904/DTD/svg10.dtd">
<svg version="1.0" xmlns="http://www.w3.org/2000/svg"
 width="512.000000pt" height="512.000000pt" viewBox="0 0 512.000000 512.000000"
 preserveAspectRatio="xMidYMid meet">
<metadata>
Created by potrace 1.11, written by Peter Selinger 2001-2013
</metadata>
<g transform="translate(0.000000,512.000000) scale(0.100000,-0.100000)"
fill="#000000" stroke="none">
<path d="M2270 4980 c-146 -18 -165 -20 -180 -24 -8 -3 -32 -7 -54 -11 -137
-20 -408 -107 -565 -183 -516 -246 -919 -644 -1161 -1147 -115 -238 -203 -541
-227 -786 -15 -148 -7 -567 12 -639 4 -14 11 -50 20 -105 22 -129 78 -309 148
-475 162 -387 435 -736 777 -992 52 -39 97 -73 99 -75 3 -2 6 -43 6 -91 3
-138 23 -198 87 -260 45 -43 82 -52 208 -52 82 0 111 4 129 17 20 14 27 14 45
3 16 -10 104 -14 361 -17 397 -6 378 -6 1731 -1 l1042 3 38 25 c48 31 108 118
131 191 17 52 18 152 18 1777 l-1 1722 -27 28 -27 27 -178 2 c-97 1 -180 2
-183 2 -3 1 -35 40 -71 89 -93 123 -119 153 -238 272 -315 316 -713 539 -1150
644 -87 21 -164 35 -225 42 -27 3 -57 8 -65 11 -25 9 -430 11 -500 3z"/>
</g>
</svg>
